# xmcd
#
# Track frame offsets: 
#        150
#        12600
#        27230
#        45716
#        59679
#        75044
#        87621
#        102629
#        114610
#        130114
#        146907
#        159665
#
# Disc length: 2344 seconds
#
# Revision: 0
# Processed by: cddbd v1.5.2PL0 Copyright (c) Steve Scherf et al.
# Submitted via: ExactAudioCopy v1.0b4
#
DISCID=a709260c
DTITLE=King Biscuit Boy - Mouth Of Steel (LP)
DYEAR=1984
DGENRE=Blues
TTITLE0=Georgia Slop
TTITLE1=Done Everything I Can
TTITLE2=Mama Luchie
TTITLE3=Neighbour, Neighbour
TTITLE4=Down The Line
TTITLE5=Hoodoo Party
TTITLE6=Route 90
TTITLE7=Terraplane Blues
TTITLE8=It's My Soul
TTITLE9=Necromonica
TTITLE10=Get It Right
TTITLE11=Look Out Mabel
EXTD=
EXTT0=
EXTT1=
EXTT2=
EXTT3=
EXTT4=
EXTT5=
EXTT6=
EXTT7=
EXTT8=
EXTT9=
EXTT10=
EXTT11=
PLAYORDER=
